<svg width="491" height="381" viewBox="0 0 491 381" fill="none" xmlns="http://www.w3.org/2000/svg">
<g clip-path="url(#clip0_30_12)">
<path d="M279.578 186.298C290.626 186.298 299.583 177.349 299.583 166.309C299.583 155.27 290.626 146.321 279.578 146.321C268.529 146.321 259.573 155.27 259.573 166.309C259.573 177.349 268.529 186.298 279.578 186.298Z" fill="white"/>
<path d="M328.606 191.995L307.701 171.107C309.303 168.617 310.389 165.83 310.894 162.913C311.399 159.995 311.313 157.006 310.64 154.123C309.968 151.239 308.723 148.52 306.98 146.126C305.237 143.732 303.03 141.712 300.491 140.185C295.71 137.332 290.031 136.376 284.578 137.508C279.125 138.639 274.297 141.776 271.049 146.296C268.06 150.483 266.625 155.58 266.989 160.71C267.354 165.839 269.496 170.682 273.047 174.405C276.598 178.128 281.336 180.499 286.446 181.11C291.557 181.72 296.721 180.533 301.051 177.752L321.956 198.64C322.838 199.52 324.034 200.015 325.281 200.014C326.527 200.014 327.723 199.519 328.605 198.638C329.486 197.757 329.981 196.563 329.982 195.317C329.982 194.071 329.487 192.877 328.606 191.995ZM300.27 170.327C297.68 172.916 294.271 174.526 290.625 174.885C286.98 175.244 283.322 174.329 280.276 172.295C277.23 170.262 274.984 167.236 273.921 163.733C272.857 160.23 273.042 156.468 274.444 153.086C275.846 149.704 278.378 146.913 281.609 145.187C284.84 143.462 288.569 142.909 292.162 143.623C295.755 144.337 298.989 146.274 301.313 149.104C303.637 151.933 304.908 155.48 304.908 159.14C304.91 161.218 304.502 163.276 303.706 165.196C302.91 167.116 301.742 168.86 300.27 170.327Z" fill="black"/>
<path d="M480.148 222.806C533.612 281.882 378.63 367.019 253.401 367.019C128.172 367.019 41.5329 301.053 26.6536 222.806C-9.42355 33.0854 334.04 -87.5003 253.401 78.5942C135.86 320.696 438.044 176.283 480.148 222.806Z" fill="white"/>
<path d="M456.16 236.788C509.624 295.863 354.642 381 229.413 381C104.184 381 17.5448 315.034 2.66551 236.788C-33.4116 47.0668 310.052 -73.5188 229.413 92.5757C111.872 334.678 414.056 190.265 456.16 236.788Z" fill="black"/>
<path d="M74.7599 98.2819C37.2448 96.6315 8.15726 88.546 8.5394 79.8743C8.7685 74.6753 19.3856 70.4946 37.6683 68.4047C37.7338 68.3968 37.8001 68.4019 37.8636 68.4197C37.927 68.4375 37.9863 68.4677 38.0381 68.5085C38.0898 68.5493 38.1329 68.5999 38.165 68.6575C38.1971 68.715 38.2175 68.7783 38.225 68.8437C38.2324 68.9091 38.2269 68.9754 38.2087 69.0387C38.1904 69.102 38.1598 69.161 38.1186 69.2124C38.0775 69.2639 38.0265 69.3066 37.9687 69.3383C37.9109 69.37 37.8474 69.3899 37.7819 69.3969C20.5596 71.3658 9.73716 75.3973 9.53792 79.9182C9.19235 87.76 39.0804 95.7126 74.8038 97.2842C110.527 98.8558 140.999 93.5587 141.345 85.7169C141.545 81.177 131.051 76.1967 113.959 72.72C113.895 72.707 113.834 72.6815 113.779 72.6449C113.725 72.6083 113.678 72.5612 113.641 72.5065C113.605 72.4517 113.58 72.3904 113.567 72.3259C113.555 72.2614 113.555 72.1951 113.568 72.1307C113.581 72.0663 113.607 72.0052 113.644 71.9507C113.68 71.8963 113.728 71.8496 113.783 71.8135C113.837 71.7773 113.899 71.7523 113.964 71.7399C114.028 71.7275 114.095 71.728 114.159 71.7413C132.3 75.4317 142.573 80.5416 142.343 85.7608C141.961 94.4325 112.275 99.9324 74.7599 98.2819Z" fill="white"/>
<path d="M41.4409 99.7341C44.5793 105.691 49.2283 110.72 54.9227 114.318C60.6171 117.916 67.1574 119.956 73.889 120.235C80.6206 120.515 87.3076 119.023 93.2808 115.909C99.2541 112.795 104.304 108.168 107.926 102.491C85.7304 102.79 63.5352 101.87 41.4409 99.7341Z" fill="#2498DB"/>
<path d="M112.076 91.9877C113.964 86.3272 114.509 80.3051 113.665 74.398C112.822 68.491 110.614 62.8612 107.217 57.9541C103.819 53.047 99.3252 48.9974 94.0904 46.1257C88.8557 43.2541 83.0238 41.6393 77.0564 41.409C71.0891 41.1788 65.1499 42.3394 59.7091 44.7992C54.2683 47.2589 49.4752 50.9502 45.709 55.5808C41.9429 60.2115 39.3071 65.6544 38.0104 71.4789C36.7136 77.3034 36.7914 83.3495 38.2376 89.1387C62.6234 93.275 87.4433 94.2326 112.076 91.9877Z" fill="#2498DB"/>
<path d="M84.3749 66.2122C86.859 66.2122 88.8727 64.2001 88.8727 61.7181C88.8727 59.2362 86.859 57.2241 84.3749 57.2241C81.8909 57.2241 79.8771 59.2362 79.8771 61.7181C79.8771 64.2001 81.8909 66.2122 84.3749 66.2122Z" fill="white"/>
<path d="M61.2264 83.6842C65.3664 83.6842 68.7226 80.3308 68.7226 76.1941C68.7226 72.0575 65.3664 68.7041 61.2264 68.7041C57.0863 68.7041 53.7301 72.0575 53.7301 76.1941C53.7301 80.3308 57.0863 83.6842 61.2264 83.6842Z" fill="white"/>
<path d="M174.366 76.3473C177.126 76.3473 179.363 74.1118 179.363 71.3541C179.363 68.5964 177.126 66.3608 174.366 66.3608C171.606 66.3608 169.368 68.5964 169.368 71.3541C169.368 74.1118 171.606 76.3473 174.366 76.3473Z" fill="#2498DB"/>
<path d="M61.4219 229.144C63.078 229.144 64.4205 227.803 64.4205 226.148C64.4205 224.493 63.078 223.152 61.4219 223.152C59.7659 223.152 58.4234 224.493 58.4234 226.148C58.4234 227.803 59.7659 229.144 61.4219 229.144Z" fill="#E6E6E6"/>
<path d="M271.318 332.007C272.974 332.007 274.316 330.666 274.316 329.011C274.316 327.357 272.974 326.015 271.318 326.015C269.662 326.015 268.319 327.357 268.319 329.011C268.319 330.666 269.662 332.007 271.318 332.007Z" fill="#E6E6E6"/>
<path d="M75.9147 171.221C76.7428 171.221 77.414 170.55 77.414 169.723C77.414 168.896 76.7428 168.225 75.9147 168.225C75.0867 168.225 74.4154 168.896 74.4154 169.723C74.4154 170.55 75.0867 171.221 75.9147 171.221Z" fill="#E6E6E6"/>
<path d="M199.853 283.072C200.681 283.072 201.353 282.402 201.353 281.574C201.353 280.747 200.681 280.076 199.853 280.076C199.025 280.076 198.354 280.747 198.354 281.574C198.354 282.402 199.025 283.072 199.853 283.072Z" fill="#E6E6E6"/>
<path d="M425.241 268.592C426.069 268.592 426.741 267.921 426.741 267.093C426.741 266.266 426.069 265.595 425.241 265.595C424.413 265.595 423.742 266.266 423.742 267.093C423.742 267.921 424.413 268.592 425.241 268.592Z" fill="#E6E6E6"/>
<path d="M354.776 313.032C355.604 313.032 356.276 312.362 356.276 311.534C356.276 310.707 355.604 310.036 354.776 310.036C353.948 310.036 353.277 310.707 353.277 311.534C353.277 312.362 353.948 313.032 354.776 313.032Z" fill="#E6E6E6"/>
<path d="M281.313 259.104C282.141 259.104 282.812 258.434 282.812 257.606C282.812 256.779 282.141 256.108 281.313 256.108C280.485 256.108 279.813 256.779 279.813 257.606C279.813 258.434 280.485 259.104 281.313 259.104Z" fill="#E6E6E6"/>
<path d="M186.36 111.301C187.188 111.301 187.859 110.63 187.859 109.803C187.859 108.976 187.188 108.305 186.36 108.305C185.532 108.305 184.861 108.976 184.861 109.803C184.861 110.63 185.532 111.301 186.36 111.301Z" fill="#E6E6E6"/>
<path d="M198.354 37.3994C199.182 37.3994 199.853 36.7287 199.853 35.9014C199.853 35.074 199.182 34.4033 198.354 34.4033C197.526 34.4033 196.855 35.074 196.855 35.9014C196.855 36.7287 197.526 37.3994 198.354 37.3994Z" fill="#E6E6E6"/>
<path d="M191.357 348.485C192.185 348.485 192.857 347.815 192.857 346.987C192.857 346.16 192.185 345.489 191.357 345.489C190.529 345.489 189.858 346.16 189.858 346.987C189.858 347.815 190.529 348.485 191.357 348.485Z" fill="#E6E6E6"/>
<path d="M117.394 317.027C118.222 317.027 118.893 316.356 118.893 315.529C118.893 314.702 118.222 314.031 117.394 314.031C116.566 314.031 115.895 314.702 115.895 315.529C115.895 316.356 116.566 317.027 117.394 317.027Z" fill="#E6E6E6"/>
<path d="M351.778 263.099C352.606 263.099 353.277 262.428 353.277 261.601C353.277 260.773 352.606 260.103 351.778 260.103C350.95 260.103 350.279 260.773 350.279 261.601C350.279 262.428 350.95 263.099 351.778 263.099Z" fill="#E6E6E6"/>
<path d="M74.1501 116.744C76.6341 116.744 78.6478 114.732 78.6478 112.25C78.6478 109.768 76.6341 107.756 74.1501 107.756C71.666 107.756 69.6523 109.768 69.6523 112.25C69.6523 114.732 71.666 116.744 74.1501 116.744Z" fill="white"/>
<path d="M175.865 181.208C175.865 194.63 155.096 225.906 149.026 234.76C148.843 235.028 148.597 235.247 148.31 235.398C148.023 235.549 147.704 235.628 147.379 235.628C147.055 235.628 146.735 235.549 146.448 235.398C146.161 235.247 145.916 235.028 145.732 234.76C139.663 225.906 118.893 194.63 118.893 181.208C118.893 177.47 119.63 173.769 121.062 170.316C122.493 166.863 124.592 163.725 127.237 161.082C129.882 158.439 133.022 156.343 136.478 154.912C139.934 153.482 143.638 152.746 147.379 152.746C151.12 152.746 154.824 153.482 158.28 154.912C161.736 156.343 164.877 158.439 167.522 161.082C170.167 163.725 172.265 166.863 173.697 170.316C175.128 173.769 175.865 177.47 175.865 181.208Z" fill="white"/>
<path d="M147.379 193.691C155.383 193.691 161.872 187.208 161.872 179.211C161.872 171.213 155.383 164.73 147.379 164.73C139.375 164.73 132.886 171.213 132.886 179.211C132.886 187.208 139.375 193.691 147.379 193.691Z" fill="black"/>
<path d="M147.129 251.115C156.376 251.115 163.871 249.662 163.871 247.869C163.871 246.077 156.376 244.624 147.129 244.624C137.883 244.624 130.388 246.077 130.388 247.869C130.388 249.662 137.883 251.115 147.129 251.115Z" fill="white"/>
<path d="M408.224 158.748C408.097 158.994 407.99 159.249 407.904 159.512L384.024 166.141L379.721 161.934L372.516 167.593L379.41 175.781C379.967 176.443 380.724 176.906 381.566 177.101C382.409 177.296 383.293 177.213 384.084 176.864L409.879 165.487C410.755 166.094 411.794 166.42 412.859 166.423C413.925 166.425 414.965 166.103 415.843 165.5C416.721 164.897 417.394 164.041 417.773 163.046C418.152 162.052 418.219 160.965 417.965 159.932C417.712 158.898 417.149 157.966 416.352 157.26C415.555 156.553 414.561 156.106 413.504 155.978C412.446 155.849 411.375 156.046 410.432 156.541C409.488 157.035 408.718 157.806 408.224 158.748H408.224Z" fill="#FFB8B8"/>
<path d="M383.183 166.53L374.22 173.5C373.964 173.699 373.67 173.84 373.355 173.914C373.041 173.988 372.714 173.994 372.397 173.931C372.08 173.867 371.781 173.736 371.519 173.547C371.257 173.357 371.039 173.114 370.88 172.833L365.31 162.982C364.301 161.673 363.854 160.017 364.065 158.378C364.277 156.74 365.13 155.252 366.438 154.241C367.746 153.23 369.402 152.778 371.042 152.985C372.683 153.192 374.174 154.041 375.19 155.345L383.355 163.132C383.588 163.355 383.771 163.625 383.891 163.925C384.01 164.225 384.064 164.548 384.047 164.87C384.031 165.193 383.945 165.508 383.796 165.794C383.647 166.081 383.438 166.332 383.183 166.53V166.53Z" fill="#2498DB"/>
<path d="M410.514 155.451L419.603 159.537C419.984 159.709 420.281 160.024 420.429 160.414C420.577 160.804 420.564 161.236 420.393 161.617L419.317 164.007C419.443 164.064 419.542 164.169 419.591 164.299C419.641 164.429 419.637 164.573 419.58 164.7L419.149 165.656C419.092 165.782 418.987 165.881 418.857 165.93C418.727 165.979 418.583 165.975 418.456 165.919L418.025 166.875C418.152 166.932 418.251 167.037 418.3 167.167C418.349 167.297 418.345 167.441 418.289 167.568L417.858 168.524C417.801 168.65 417.695 168.749 417.566 168.798C417.436 168.847 417.291 168.843 417.164 168.787L411.353 181.692C411.182 182.073 410.866 182.37 410.476 182.517C410.086 182.665 409.653 182.652 409.272 182.481L400.183 178.395C399.802 178.224 399.505 177.909 399.357 177.519C399.209 177.129 399.222 176.696 399.393 176.316L408.433 156.24C408.604 155.86 408.92 155.563 409.31 155.415C409.7 155.267 410.133 155.28 410.514 155.451Z" fill="black"/>
<path d="M401.833 177.124L409.125 180.405C409.49 180.568 409.905 180.58 410.28 180.439C410.654 180.298 410.957 180.014 411.123 179.65L414.491 172.165L415.661 169.571L418.709 162.799C418.872 162.434 418.884 162.021 418.742 161.647C418.601 161.274 418.317 160.972 417.954 160.807L415.661 159.774L410.657 157.526C410.291 157.363 409.876 157.351 409.503 157.494C409.129 157.636 408.827 157.921 408.663 158.286L405.715 164.833L402.358 172.286L401.078 175.132C400.914 175.496 400.902 175.91 401.044 176.284C401.185 176.657 401.469 176.959 401.833 177.124Z" fill="#F2F2F2"/>
<path d="M386.597 269.862L392.724 269.862L395.639 246.249L386.596 246.25L386.597 269.862Z" fill="#FFB8B8"/>
<path d="M385.034 267.864L397.1 267.863H397.1C398.11 267.863 399.11 268.062 400.043 268.448C400.976 268.834 401.824 269.4 402.538 270.113C403.252 270.827 403.818 271.674 404.205 272.606C404.591 273.538 404.79 274.537 404.79 275.546V275.796L385.034 275.797L385.034 267.864Z" fill="#003350"/>
<path d="M402.589 268.364L408.716 268.364L411.631 244.751L402.588 244.752L402.589 268.364Z" fill="#FFB8B8"/>
<path d="M401.026 266.366L413.092 266.365H413.093C414.102 266.365 415.102 266.564 416.035 266.95C416.968 267.336 417.816 267.902 418.53 268.615C419.244 269.329 419.81 270.176 420.197 271.108C420.583 272.04 420.782 273.039 420.782 274.048V274.298L401.026 274.299L401.026 266.366Z" fill="#003350"/>
<path d="M359.114 214.454C360.42 218.32 362.896 221.685 366.2 224.084C369.503 226.482 373.472 227.795 377.555 227.841L377.865 227.846C381.028 227.936 384.742 226.917 388.385 225.454C395.581 222.563 402.493 217.934 404.327 216.661L401.218 246.516L399.959 258.62C399.927 258.933 399.961 259.249 400.059 259.548C400.157 259.848 400.317 260.123 400.528 260.357C400.739 260.59 400.996 260.778 401.284 260.906C401.572 261.034 401.883 261.101 402.198 261.102H409.959C410.457 261.102 410.94 260.937 411.335 260.634C411.729 260.33 412.011 259.905 412.138 259.424L424.952 210.664C425.336 209.204 425.367 207.674 425.042 206.201C424.717 204.727 424.045 203.351 423.083 202.189C422.12 201.026 420.894 200.109 419.506 199.513C418.118 198.918 416.608 198.661 415.101 198.765L388.485 200.587L390.344 193.157L366.586 191.579L366.516 191.629C365.946 192.043 365.391 192.478 364.862 192.932C363.537 194.052 362.363 195.337 361.368 196.757C359.589 199.305 358.454 202.246 358.062 205.328C357.669 208.41 358.03 211.542 359.114 214.454Z" fill="#003350"/>
<path d="M359.114 214.454C360.42 218.32 362.896 221.685 366.2 224.084C369.503 226.482 373.472 227.795 377.555 227.841C381.46 225.866 385.228 223.633 388.834 221.155L388.385 225.454L384.467 263.114C384.435 263.427 384.469 263.743 384.567 264.043C384.665 264.342 384.825 264.617 385.035 264.851C385.246 265.085 385.504 265.272 385.792 265.4C386.079 265.528 386.391 265.595 386.706 265.596H394.467C394.964 265.596 395.448 265.431 395.842 265.128C396.237 264.824 396.519 264.399 396.646 263.918L401.218 246.516L409.459 215.158C409.844 213.698 409.875 212.168 409.549 210.695C409.224 209.221 408.553 207.846 407.59 206.683C406.628 205.52 405.402 204.603 404.014 204.007C402.626 203.412 401.116 203.155 399.609 203.259L372.992 205.081L374.851 197.651L361.368 196.757C359.589 199.305 358.454 202.246 358.062 205.328C357.669 208.41 358.03 211.542 359.114 214.454Z" fill="#003350"/>
<path d="M364.827 194.655L364.649 194.633L360.503 174.268C360.468 174.091 357.079 156.525 367.468 147.342L367.649 146.085C367.695 145.763 367.811 145.455 367.988 145.183C368.165 144.91 368.399 144.679 368.673 144.505C368.948 144.331 369.258 144.219 369.58 144.177C369.903 144.134 370.23 144.162 370.541 144.258L380.329 147.292C380.883 147.462 381.349 147.84 381.63 148.347C381.912 148.853 381.986 149.449 381.837 150.009L380.886 153.625C382.205 155.173 397.735 173.854 392.325 188.247L389.903 197.71L364.827 194.655Z" fill="#2498DB"/>
<path d="M405.468 178.761C405.233 178.908 405.011 179.073 404.803 179.255L380.867 172.835L379.302 167.025L370.218 168.239L371.989 178.792C372.132 179.645 372.547 180.428 373.174 181.024C373.8 181.621 374.603 181.998 375.463 182.099L403.465 185.404C403.909 186.372 404.638 187.18 405.555 187.724C406.471 188.267 407.531 188.518 408.594 188.445C409.656 188.371 410.671 187.976 411.504 187.312C412.337 186.648 412.947 185.747 413.254 184.728C413.562 183.708 413.551 182.62 413.224 181.607C412.897 180.594 412.269 179.704 411.424 179.056C410.579 178.409 409.556 178.033 408.492 177.981C407.428 177.928 406.373 178.2 405.468 178.761H405.468Z" fill="#FFB8B8"/>
<path d="M379.944 172.742L368.679 174.192C368.359 174.233 368.033 174.205 367.724 174.109C367.416 174.013 367.132 173.852 366.891 173.636C366.65 173.421 366.459 173.156 366.33 172.86C366.201 172.564 366.137 172.243 366.143 171.921L366.358 160.608C366.156 158.969 366.613 157.316 367.629 156.012C368.645 154.708 370.137 153.861 371.777 153.654C373.418 153.448 375.073 153.9 376.381 154.912C377.688 155.923 378.541 157.411 378.752 159.05L381.821 169.903C381.909 170.214 381.929 170.54 381.879 170.859C381.829 171.178 381.712 171.482 381.533 171.752C381.355 172.021 381.121 172.249 380.847 172.42C380.573 172.591 380.265 172.701 379.944 172.742Z" fill="#2498DB"/>
<path d="M376.773 141.494C383.552 141.494 389.048 136.003 389.048 129.23C389.048 122.456 383.552 116.966 376.773 116.966C369.994 116.966 364.499 122.456 364.499 129.23C364.499 136.003 369.994 141.494 376.773 141.494Z" fill="#FFB8B8"/>
<path d="M376.128 130.254L374.591 127.458C371.68 139.308 376.822 149.116 376.822 149.116L356.865 139.828L357.055 136.532L355.081 138.771L352.243 137.209L351.869 135.071L349.727 135.601L357.545 121.427C365.132 107.938 376.163 113.088 376.163 113.088C393.712 112.254 391.569 129.554 391.569 129.554L376.128 130.254Z" fill="black"/>
<path d="M236.403 221.648C239.233 219.836 235.791 209.426 228.716 198.398C221.64 187.371 213.61 179.9 210.78 181.713C207.95 183.526 211.392 193.935 218.467 204.963C225.543 215.991 233.573 223.461 236.403 221.648Z" fill="black"/>
</g>
<defs>
<clipPath id="clip0_30_12">
<rect width="491" height="381" fill="white"/>
</clipPath>
</defs>
</svg>
