<svg width="504" height="261" viewBox="0 0 504 261" fill="none" xmlns="http://www.w3.org/2000/svg">
<g clip-path="url(#clip0_604_3)">
<path d="M252 232.763C391.176 232.763 504 229.607 504 225.714C504 221.821 391.176 218.665 252 218.665C112.824 218.665 0 221.821 0 225.714C0 229.607 112.824 232.763 252 232.763Z" fill="#E6E6E6"/>
<path d="M386.298 149.334C385.98 149.338 385.662 149.343 385.339 149.343C385.017 149.343 384.699 149.338 384.38 149.334C367.511 148.951 355.285 138.411 358.397 127.352L365.986 100.375L367.904 93.5491L401.903 94.1288L403.969 100.807L412.103 127.091C415.546 138.21 403.32 148.951 386.298 149.334Z" fill="#3F3D56"/>
<path opacity="0.2" d="M403.969 100.807C398.172 104.12 391.596 105.827 384.919 105.752C378.242 105.676 371.706 103.82 365.986 100.375L367.904 93.5491L401.903 94.1288L403.969 100.807Z" fill="black"/>
<path d="M402.534 128.247C404.003 122.774 408.83 114.877 422.367 105.357C445.977 88.7505 431.893 76.2989 431.282 75.7772C430.002 74.6829 430.191 73.4542 431.722 73.0343C432.611 72.8566 433.528 72.871 434.412 73.0765C435.295 73.2821 436.124 73.6742 436.843 74.2264C437.608 74.8587 455.244 89.9193 428.603 108.655C404.626 125.52 409.724 136.528 409.783 136.634C410.425 137.811 409.395 138.754 407.479 138.741C405.564 138.728 403.489 137.764 402.844 136.588C402.709 136.339 401.166 133.343 402.534 128.247Z" fill="#3F3D56"/>
<path d="M369.647 153.266C369.132 153.266 368.622 153.164 368.146 152.967C367.67 152.77 367.238 152.481 366.873 152.117C366.509 151.753 366.22 151.32 366.023 150.844C365.826 150.368 365.724 149.858 365.724 149.343V132.343C365.724 131.303 366.138 130.305 366.873 129.569C367.609 128.833 368.607 128.42 369.647 128.42C370.688 128.42 371.686 128.833 372.421 129.569C373.157 130.305 373.57 131.303 373.57 132.343V149.343C373.57 149.858 373.469 150.368 373.272 150.844C373.074 151.32 372.786 151.753 372.421 152.117C372.057 152.481 371.625 152.77 371.149 152.967C370.673 153.164 370.162 153.266 369.647 153.266Z" fill="#3F3D56"/>
<path d="M373.087 112.908C372.872 113.376 372.566 113.797 372.188 114.147C371.81 114.497 371.367 114.769 370.884 114.948C370.4 115.126 369.887 115.208 369.372 115.188C368.857 115.168 368.351 115.047 367.883 114.832L352.44 107.727C351.496 107.291 350.763 106.498 350.403 105.523C350.043 104.548 350.085 103.469 350.519 102.525C350.954 101.58 351.746 100.847 352.721 100.486C353.696 100.125 354.774 100.165 355.719 100.599L371.163 107.704C371.631 107.92 372.052 108.225 372.402 108.603C372.752 108.981 373.024 109.424 373.203 109.907C373.381 110.391 373.463 110.904 373.443 111.419C373.423 111.934 373.302 112.44 373.087 112.908Z" fill="#3F3D56"/>
<path d="M397.592 112.908C397.807 113.376 398.112 113.797 398.49 114.147C398.868 114.497 399.312 114.769 399.795 114.948C400.278 115.126 400.792 115.208 401.307 115.188C401.821 115.168 402.327 115.047 402.795 114.832L418.239 107.727C419.184 107.292 419.918 106.499 420.279 105.523C420.639 104.547 420.598 103.468 420.163 102.523C419.728 101.578 418.936 100.844 417.96 100.483C416.984 100.122 415.905 100.164 414.959 100.599L399.516 107.704C399.048 107.92 398.627 108.225 398.277 108.603C397.927 108.981 397.655 109.424 397.476 109.907C397.297 110.391 397.216 110.904 397.235 111.419C397.255 111.934 397.376 112.44 397.592 112.908Z" fill="#3F3D56"/>
<path d="M401.031 153.266C401.546 153.266 402.056 153.164 402.532 152.967C403.008 152.77 403.441 152.481 403.805 152.117C404.169 151.753 404.458 151.32 404.656 150.844C404.853 150.368 404.954 149.858 404.954 149.343V132.343C404.954 131.303 404.541 130.305 403.805 129.569C403.069 128.833 402.072 128.42 401.031 128.42C399.991 128.42 398.993 128.833 398.257 129.569C397.521 130.305 397.108 131.303 397.108 132.343V149.343C397.108 149.858 397.21 150.368 397.407 150.844C397.604 151.32 397.893 151.753 398.257 152.117C398.621 152.481 399.054 152.77 399.53 152.967C400.006 153.164 400.516 153.266 401.031 153.266Z" fill="#3F3D56"/>
<path d="M417.426 43.2103C417.765 42.7833 418.01 42.2893 418.144 41.7608C418.278 41.2323 418.299 40.6814 418.204 40.1444L416.069 27.584L413.934 15.0236C413.819 14.3454 413.527 13.7095 413.088 13.1799C412.649 12.6502 412.079 12.2454 411.434 12.0061C410.789 11.7669 410.092 11.7016 409.414 11.8169C408.736 11.9322 408.1 12.2239 407.57 12.6629L397.76 20.7921L391.85 25.6897C387.909 24.9888 383.88 24.928 379.919 25.5098L374.226 20.7921L364.416 12.6629C363.886 12.2239 363.25 11.9322 362.572 11.8169C361.894 11.7016 361.197 11.7669 360.552 12.0061C359.907 12.2454 359.337 12.6502 358.898 13.1799C358.459 13.7095 358.167 14.3454 358.052 15.0236L355.917 27.584L353.782 40.1444C353.668 40.8045 353.726 41.4829 353.953 42.1135C350.293 47.7229 348.204 54.2102 347.902 60.9006C347.6 67.5911 349.096 74.2402 352.235 80.1565C355.373 86.0728 360.04 91.04 365.749 94.5414C371.458 98.0429 378.001 99.9507 384.697 100.066C391.394 100.182 397.999 98.5015 403.825 95.1993C409.652 91.8972 414.487 87.0941 417.828 81.2898C421.169 75.4856 422.894 68.892 422.824 62.1951C422.753 55.4983 420.889 48.9427 417.426 43.2103Z" fill="#3F3D56"/>
<path d="M363.433 17.8101C363.2 17.8104 362.969 17.8523 362.751 17.9337C362.431 18.0504 362.147 18.2502 361.93 18.5128C361.712 18.7753 361.568 19.0911 361.513 19.4276L358.924 34.6595C358.867 34.9952 358.899 35.3401 359.018 35.6594C359.136 35.9787 359.337 36.2612 359.599 36.4785C359.861 36.6958 360.176 36.8403 360.512 36.8973C360.847 36.9544 361.192 36.9221 361.512 36.8036L375.997 31.4299C376.316 31.3114 376.599 31.1111 376.816 30.8488C377.034 30.5866 377.178 30.2719 377.235 29.9362C377.292 29.6005 377.26 29.2556 377.141 28.9364C377.023 28.6171 376.823 28.3346 376.56 28.1173L364.664 18.2589C364.319 17.9697 363.883 17.8109 363.433 17.8101Z" fill="#E6E6E6"/>
<path d="M408.554 17.8101C408.103 17.8109 407.668 17.9698 407.322 18.2589L395.426 28.1173C395.164 28.3346 394.963 28.6171 394.845 28.9364C394.726 29.2556 394.694 29.6005 394.751 29.9362C394.808 30.2719 394.953 30.5866 395.17 30.8488C395.387 31.1111 395.67 31.3114 395.989 31.4299L410.475 36.8036C410.794 36.9221 411.139 36.9544 411.475 36.8973C411.81 36.8403 412.125 36.6958 412.387 36.4785C412.65 36.2612 412.85 35.9787 412.969 35.6594C413.087 35.3401 413.119 34.9952 413.062 34.6595L410.473 19.4276C410.418 19.0911 410.274 18.7753 410.057 18.5128C409.839 18.2502 409.555 18.0504 409.235 17.9337C409.017 17.8523 408.786 17.8104 408.554 17.8101Z" fill="#E6E6E6"/>
<path d="M385.339 73.0624C388.228 73.0624 390.57 70.7206 390.57 67.8317C390.57 64.9429 388.228 62.6011 385.339 62.6011C382.45 62.6011 380.109 64.9429 380.109 67.8317C380.109 70.7206 382.45 73.0624 385.339 73.0624Z" fill="#E6E6E6"/>
<path d="M385.339 66.524C387.265 66.524 388.826 65.9386 388.826 65.2164C388.826 64.4942 387.265 63.9087 385.339 63.9087C383.413 63.9087 381.852 64.4942 381.852 65.2164C381.852 65.9386 383.413 66.524 385.339 66.524Z" fill="#3F3D56"/>
<path d="M382.724 70.8828H387.519V76.7673C387.519 77.0821 387.457 77.3939 387.336 77.6848C387.216 77.9756 387.039 78.2399 386.816 78.4625C386.594 78.6851 386.33 78.8617 386.039 78.9822C385.748 79.1027 385.436 79.1647 385.121 79.1647C384.485 79.1647 383.876 78.9121 383.426 78.4625C382.976 78.0129 382.724 77.4031 382.724 76.7673L382.724 70.8828Z" fill="#FF6584"/>
<path d="M385.63 11.5527C385.379 12.0741 385.135 12.6012 384.905 13.139C382.2 19.4479 381.288 26.3808 382.269 33.1747C382.759 32.4627 383.275 31.7208 383.8 30.9708C382.676 24.4504 383.308 17.7484 385.63 11.5527Z" fill="#3F3D56"/>
<path d="M389.553 16.3477C389.302 16.8691 389.058 17.3961 388.828 17.9339C386.123 24.2428 385.211 31.1757 386.192 37.9697C386.682 37.2576 387.198 36.5158 387.723 35.7658C386.599 29.2453 387.231 22.5433 389.553 16.3477Z" fill="#3F3D56"/>
<path d="M401.648 110.479L401.096 103.451L400.543 96.4224C400.513 96.0429 400.384 95.6779 400.168 95.3642C399.953 95.0505 399.658 94.7991 399.315 94.6352C398.971 94.4713 398.591 94.4007 398.211 94.4305C397.832 94.4604 397.467 94.5896 397.153 94.8052L391.343 98.7979L387.1 101.713C386.829 101.396 386.492 101.141 386.113 100.966C385.733 100.791 385.321 100.701 384.903 100.701C384.486 100.701 384.073 100.791 383.694 100.966C383.315 101.141 382.978 101.396 382.707 101.713L378.464 98.7979L372.654 94.8051C372.34 94.5895 371.975 94.4603 371.596 94.4305C371.216 94.4007 370.836 94.4712 370.492 94.6351C370.148 94.799 369.854 95.0505 369.638 95.3642C369.423 95.6779 369.294 96.0429 369.264 96.4223L368.711 103.451L368.159 110.479C368.129 110.858 368.199 111.239 368.363 111.582C368.527 111.926 368.779 112.22 369.092 112.436C369.406 112.652 369.771 112.781 370.15 112.811C370.53 112.84 370.911 112.77 371.254 112.606L377.617 109.57L382.845 107.076C383.114 107.349 383.435 107.565 383.788 107.713C384.141 107.861 384.52 107.937 384.903 107.937C385.286 107.937 385.665 107.861 386.019 107.713C386.372 107.565 386.693 107.349 386.962 107.076L392.19 109.57L398.553 112.606C398.896 112.77 399.277 112.84 399.656 112.811C400.036 112.781 400.401 112.652 400.714 112.436C401.028 112.22 401.28 111.926 401.444 111.583C401.607 111.239 401.678 110.858 401.648 110.479Z" fill="#9292FD"/>
<path d="M378.365 63.4728C379.087 63.4728 379.673 62.8873 379.673 62.1651C379.673 61.4429 379.087 60.8574 378.365 60.8574C377.643 60.8574 377.057 61.4429 377.057 62.1651C377.057 62.8873 377.643 63.4728 378.365 63.4728Z" fill="#E6E6E6"/>
<path d="M392.314 63.4728C393.036 63.4728 393.621 62.8873 393.621 62.1651C393.621 61.4429 393.036 60.8574 392.314 60.8574C391.591 60.8574 391.006 61.4429 391.006 62.1651C391.006 62.8873 391.591 63.4728 392.314 63.4728Z" fill="#E6E6E6"/>
<path d="M132.324 137.781C132.643 137.786 132.961 137.79 133.283 137.79C133.606 137.79 133.924 137.786 134.242 137.781C151.111 137.398 163.338 126.858 160.226 115.8L152.637 88.8224L150.719 81.9963L116.72 82.5761L114.653 89.2539L106.52 115.538C103.076 126.657 115.303 137.398 132.324 137.781Z" fill="#3F3D56"/>
<path opacity="0.2" d="M114.653 89.2539C120.451 92.5676 127.027 94.2747 133.704 94.1988C140.381 94.123 146.917 92.267 152.637 88.8224L150.719 81.9963L116.72 82.5761L114.653 89.2539Z" fill="black"/>
<path d="M111.959 113.497C108.289 109.178 100.547 104.107 84.2382 101.295C55.7936 96.3879 63.1951 79.1073 63.5234 78.3747C64.2123 76.8378 63.5156 75.8081 61.9524 76.0837C61.0726 76.3035 60.2499 76.7089 59.5395 77.2727C58.8292 77.8365 58.2476 78.5456 57.8337 79.3525C57.4133 80.2511 47.9178 101.41 80.0141 106.944C108.901 111.927 109.004 124.058 108.996 124.179C108.919 125.518 110.253 125.929 111.979 125.098C113.705 124.266 115.168 122.507 115.247 121.169C115.263 120.886 115.376 117.518 111.959 113.497Z" fill="#3F3D56"/>
<path d="M148.975 141.713C149.491 141.713 150.001 141.612 150.477 141.414C150.953 141.217 151.385 140.928 151.749 140.564C152.114 140.2 152.403 139.767 152.6 139.291C152.797 138.815 152.898 138.305 152.898 137.79V120.79C152.897 119.751 152.483 118.754 151.748 118.019C151.012 117.285 150.015 116.872 148.975 116.872C147.936 116.872 146.939 117.285 146.203 118.019C145.467 118.754 145.054 119.751 145.052 120.79V137.79C145.052 138.305 145.154 138.815 145.351 139.291C145.548 139.767 145.837 140.2 146.201 140.564C146.566 140.928 146.998 141.217 147.474 141.414C147.95 141.612 148.46 141.713 148.975 141.713Z" fill="#3F3D56"/>
<path d="M145.536 101.355C145.751 101.823 146.056 102.244 146.434 102.594C146.813 102.944 147.256 103.216 147.739 103.395C148.222 103.574 148.736 103.655 149.251 103.636C149.765 103.616 150.271 103.495 150.739 103.279L166.183 96.1739C166.651 95.959 167.073 95.6537 167.424 95.2757C167.774 94.8977 168.047 94.4543 168.226 93.9709C168.405 93.4874 168.487 92.9734 168.467 92.4583C168.447 91.9431 168.326 91.4369 168.111 90.9686C167.895 90.5003 167.59 90.079 167.211 89.7289C166.833 89.3787 166.389 89.1066 165.906 88.9281C165.422 88.7495 164.908 88.6681 164.393 88.6883C163.878 88.7086 163.372 88.8302 162.903 89.0462L147.46 96.1515C146.992 96.3669 146.571 96.6723 146.221 97.0503C145.871 97.4283 145.599 97.8716 145.42 98.3548C145.241 98.838 145.16 99.3517 145.179 99.8665C145.199 100.381 145.32 100.887 145.536 101.355Z" fill="#3F3D56"/>
<path d="M121.031 101.355C120.816 101.823 120.51 102.244 120.132 102.594C119.754 102.944 119.311 103.216 118.828 103.395C118.345 103.574 117.831 103.655 117.316 103.636C116.801 103.616 116.295 103.495 115.827 103.279L100.384 96.1739C99.9153 95.959 99.4937 95.6537 99.1432 95.2757C98.7927 94.8977 98.5201 94.4543 98.341 93.9709C98.162 93.4874 98.08 92.9734 98.0997 92.4583C98.1194 91.9431 98.2404 91.4369 98.4559 90.9686C98.6714 90.5003 98.9771 90.079 99.3554 89.7289C99.7338 89.3787 100.178 89.1066 100.661 88.9281C101.145 88.7495 101.659 88.6681 102.174 88.6883C102.689 88.7086 103.195 88.8302 103.663 89.0462L119.107 96.1515C119.575 96.3669 119.996 96.6723 120.346 97.0503C120.696 97.4283 120.968 97.8716 121.147 98.3548C121.325 98.838 121.407 99.3517 121.387 99.8665C121.367 100.381 121.246 100.887 121.031 101.355Z" fill="#3F3D56"/>
<path d="M117.591 141.713C117.076 141.713 116.566 141.612 116.09 141.414C115.614 141.217 115.182 140.928 114.817 140.564C114.453 140.2 114.164 139.767 113.967 139.291C113.77 138.815 113.668 138.305 113.668 137.79V120.79C113.67 119.751 114.084 118.754 114.819 118.019C115.555 117.285 116.552 116.872 117.591 116.872C118.631 116.872 119.628 117.285 120.364 118.019C121.099 118.754 121.513 119.751 121.514 120.79V137.79C121.514 138.305 121.413 138.815 121.216 139.291C121.019 139.767 120.73 140.2 120.365 140.564C120.001 140.928 119.569 141.217 119.093 141.414C118.617 141.612 118.107 141.713 117.591 141.713Z" fill="#3F3D56"/>
<path d="M164.67 30.5608C164.896 29.9302 164.955 29.2518 164.841 28.5916L162.706 16.0313L160.571 3.47088C160.456 2.7927 160.164 2.15682 159.725 1.62715C159.286 1.09747 158.715 0.692673 158.07 0.453422C157.425 0.214171 156.729 0.148899 156.051 0.264179C155.372 0.379459 154.737 0.671228 154.207 1.11015L144.397 9.23939L138.704 13.957C134.743 13.3753 130.714 13.4361 126.772 14.1369L120.862 9.23937L111.052 1.11013C110.523 0.671209 109.887 0.379443 109.208 0.264162C108.53 0.148881 107.834 0.214145 107.189 0.453396C106.544 0.692647 105.973 1.09745 105.534 1.62713C105.095 2.15681 104.804 2.79269 104.688 3.47086L102.553 16.0313L100.418 28.5916C100.324 29.1287 100.345 29.6796 100.479 30.2081C100.613 30.7365 100.858 31.2305 101.197 31.6575C97.7292 37.3913 95.8617 43.9495 95.7886 50.6498C95.7155 57.3501 97.4394 63.9475 100.781 69.7555C104.122 75.5636 108.959 80.3699 114.789 83.6744C120.618 86.9789 127.226 88.6608 133.926 88.5451C140.625 88.4293 147.172 86.5201 152.883 83.0162C158.595 79.5123 163.263 74.5417 166.402 68.6217C169.541 62.7017 171.036 56.0487 170.731 49.3549C170.427 42.6612 168.334 36.1713 164.67 30.5608Z" fill="#3F3D56"/>
<path d="M153.959 6.70619L142.062 16.5641C141.8 16.7814 141.6 17.0643 141.481 17.3836C141.363 17.7029 141.331 18.0477 141.388 18.3834C141.445 18.7191 141.589 19.0339 141.806 19.2961C142.024 19.5583 142.306 19.7587 142.625 19.8771L157.111 25.2508C157.43 25.3693 157.775 25.4016 158.111 25.3446C158.447 25.2875 158.762 25.1431 159.024 24.9258C159.286 24.7085 159.487 24.426 159.605 24.1067C159.723 23.7874 159.756 23.4425 159.699 23.1067L157.11 7.87488C157.054 7.53835 156.911 7.2226 156.693 6.96005C156.475 6.6975 156.192 6.49763 155.871 6.38098C155.653 6.29953 155.423 6.25766 155.19 6.25732C154.74 6.25817 154.304 6.41702 153.959 6.70619Z" fill="#E6E6E6"/>
<path d="M109.388 6.38098C109.067 6.49763 108.784 6.69749 108.566 6.96004C108.349 7.22259 108.205 7.53835 108.15 7.87488L105.56 23.1067C105.503 23.4425 105.536 23.7874 105.654 24.1067C105.773 24.426 105.973 24.7085 106.235 24.9258C106.498 25.1431 106.812 25.2875 107.148 25.3446C107.484 25.4016 107.829 25.3693 108.148 25.2508L122.634 19.8771C122.953 19.7587 123.235 19.5583 123.453 19.2961C123.67 19.0339 123.814 18.7191 123.871 18.3834C123.929 18.0477 123.896 17.7029 123.778 17.3836C123.659 17.0643 123.459 16.7819 123.197 16.5646L111.3 6.70619C110.955 6.41702 110.519 6.25816 110.069 6.25732C109.836 6.25766 109.606 6.29953 109.388 6.38098Z" fill="#E6E6E6"/>
<path d="M133.283 61.5097C136.172 61.5097 138.514 59.1678 138.514 56.279C138.514 53.3902 136.172 51.0483 133.283 51.0483C130.395 51.0483 128.053 53.3902 128.053 56.279C128.053 59.1678 130.395 61.5097 133.283 61.5097Z" fill="#E6E6E6"/>
<path d="M133.283 54.9713C135.209 54.9713 136.77 54.3858 136.77 53.6636C136.77 52.9414 135.209 52.356 133.283 52.356C131.357 52.356 129.796 52.9414 129.796 53.6636C129.796 54.3858 131.357 54.9713 133.283 54.9713Z" fill="#3F3D56"/>
<path d="M133.501 67.6121C133.186 67.6121 132.875 67.55 132.584 67.4296C132.293 67.3091 132.029 67.1325 131.806 66.9099C131.583 66.6873 131.407 66.423 131.286 66.1321C131.166 65.8412 131.104 65.5295 131.104 65.2146V59.3302H135.899V65.2146C135.899 65.5295 135.837 65.8412 135.716 66.1321C135.596 66.423 135.419 66.6873 135.197 66.9099C134.974 67.1325 134.71 67.3091 134.419 67.4296C134.128 67.55 133.816 67.6121 133.501 67.6121Z" fill="#FF6584"/>
<path d="M132.992 0C133.244 0.521394 133.488 1.04843 133.717 1.58624C136.423 7.89514 137.335 14.828 136.354 21.622C135.863 20.9099 135.347 20.1681 134.823 19.4181C135.946 12.8976 135.315 6.19565 132.992 0Z" fill="#3F3D56"/>
<path d="M129.069 4.79468C129.321 5.31608 129.565 5.84311 129.794 6.38092C132.5 12.6898 133.412 19.6227 132.431 26.4167C131.94 25.7046 131.424 24.9628 130.9 24.2128C132.023 17.6923 131.392 10.9903 129.069 4.79468Z" fill="#3F3D56"/>
<path d="M116.974 22.6453L117.527 15.6171L118.08 8.58885C118.11 8.20937 118.239 7.84443 118.454 7.53071C118.67 7.21698 118.964 6.96554 119.308 6.80164C119.651 6.63774 120.032 6.56716 120.412 6.59701C120.791 6.62685 121.156 6.75606 121.47 6.97164L127.28 10.9644L131.523 13.88C131.794 13.5625 132.131 13.3075 132.51 13.1327C132.889 12.9579 133.302 12.8674 133.719 12.8674C134.137 12.8674 134.549 12.9579 134.929 13.1327C135.308 13.3075 135.645 13.5625 135.916 13.88L140.159 10.9644L145.969 6.97164C146.283 6.75606 146.648 6.62685 147.027 6.59701C147.407 6.56716 147.787 6.63774 148.131 6.80164C148.474 6.96554 148.769 7.21698 148.984 7.53071C149.2 7.84443 149.329 8.20937 149.359 8.58885L149.911 15.6171L150.464 22.6453C150.494 23.0248 150.423 23.4054 150.26 23.749C150.096 24.0925 149.844 24.3869 149.53 24.6025C149.217 24.8181 148.852 24.9473 148.472 24.9771C148.093 25.0069 147.712 24.9364 147.369 24.7725L141.006 21.737L135.777 19.2428C135.508 19.5154 135.188 19.7318 134.835 19.8795C134.481 20.0273 134.102 20.1033 133.719 20.1033C133.336 20.1033 132.957 20.0273 132.604 19.8795C132.251 19.7318 131.93 19.5154 131.661 19.2428L126.433 21.737L120.07 24.7725C119.726 24.9364 119.346 25.007 118.966 24.9771C118.587 24.9473 118.222 24.8181 117.908 24.6025C117.594 24.3869 117.343 24.0926 117.179 23.749C117.015 23.4054 116.945 23.0248 116.974 22.6453Z" fill="#9292FD"/>
<path d="M138.95 50.6123C138.95 51.3345 139.535 50.6123 140.258 50.6123C140.98 50.6123 141.565 51.3345 141.565 50.6123C141.565 50.266 141.426 49.9341 141.181 49.6894C140.936 49.4448 140.604 49.3074 140.258 49.3074C139.911 49.3074 139.579 49.4448 139.334 49.6894C139.089 49.9341 138.951 50.266 138.95 50.6123Z" fill="#E6E6E6"/>
<path d="M127.617 50.6123C127.617 51.3345 127.031 50.6123 126.309 50.6123C125.587 50.6123 125.001 51.3345 125.001 50.6123C125.002 50.266 125.14 49.9341 125.385 49.6894C125.631 49.4448 125.963 49.3074 126.309 49.3074C126.655 49.3074 126.988 49.4448 127.233 49.6894C127.478 49.9341 127.616 50.266 127.617 50.6123Z" fill="#E6E6E6"/>
<path d="M272.698 149.345V141.033H231.138V141.553V149.345V216.361V224.674H239.45H272.698V216.361H239.45V149.345H272.698Z" fill="#3F3D56"/>
<path d="M292.959 141.033V224.674H334.519V141.033H292.959ZM326.207 216.361H301.271V149.346H326.207V216.361Z" fill="#9292FD"/>
<path d="M177.629 216.361V141.553H169.317V216.361V224.674H177.629H210.877V216.361H177.629Z" fill="#9292FD"/>
<path d="M150.615 149.345V141.033H109.054V141.553V149.345V178.438V186.75V216.361V224.674H117.366H150.615V216.361H117.366V186.75H150.615V178.438H117.366V149.345H150.615Z" fill="#3F3D56"/>
<path d="M475.824 149.345V141.033H434.264V141.553V149.345V178.438V186.75V216.361V224.674H442.576H475.824V216.361H442.576V186.75H475.824V178.438H442.576V149.345H475.824Z" fill="#9292FD"/>
<path d="M81.0011 141.553V210.251L59.0849 188.335L59.035 188.385L58.9885 188.339L36.5837 210.744V141.293H28.2715V224.414H36.5837V222.499L59.0389 200.043L81.0011 222.006V224.674H89.3132V141.553H81.0011Z" fill="#3F3D56"/>
<path d="M406.73 141.553V143.468L384.275 165.923L362.312 143.961V141.293H354V224.414H362.312V155.716L384.229 177.632L384.279 177.582L384.325 177.628L406.73 155.223V224.674H415.042V141.553H406.73Z" fill="#3F3D56"/>
<path d="M189.948 90.3491C192.766 90.3491 195.05 88.0649 195.05 85.2472C195.05 82.4295 192.766 80.1453 189.948 80.1453C187.13 80.1453 184.846 82.4295 184.846 85.2472C184.846 88.0649 187.13 90.3491 189.948 90.3491Z" fill="#9292FD"/>
<path d="M64.1004 147.037C66.9181 147.037 69.2023 144.753 69.2023 141.935C69.2023 139.118 66.9181 136.833 64.1004 136.833C61.2827 136.833 58.9984 139.118 58.9984 141.935C58.9984 144.753 61.2827 147.037 64.1004 147.037Z" fill="#9292FD"/>
<path d="M165.005 260.414C167.823 260.414 170.107 258.129 170.107 255.312C170.107 252.494 167.823 250.21 165.005 250.21C162.187 250.21 159.903 252.494 159.903 255.312C159.903 258.129 162.187 260.414 165.005 260.414Z" fill="#9292FD"/>
<path d="M293.12 105.655C295.938 105.655 298.222 103.371 298.222 100.553C298.222 97.7354 295.938 95.4512 293.12 95.4512C290.303 95.4512 288.018 97.7354 288.018 100.553C288.018 103.371 290.303 105.655 293.12 105.655Z" fill="#9292FD"/>
<path d="M443.344 255.878C446.161 255.878 448.446 253.594 448.446 250.776C448.446 247.959 446.161 245.675 443.344 245.675C440.526 245.675 438.242 247.959 438.242 250.776C438.242 253.594 440.526 255.878 443.344 255.878Z" fill="#9292FD"/>
<path d="M448.446 122.094C451.263 122.094 453.548 119.81 453.548 116.993C453.548 114.175 451.263 111.891 448.446 111.891C445.628 111.891 443.344 114.175 443.344 116.993C443.344 119.81 445.628 122.094 448.446 122.094Z" fill="#9292FD"/>
<path d="M383.821 213.929C386.639 213.929 388.923 211.645 388.923 208.827C388.923 206.01 386.639 203.725 383.821 203.725C381.004 203.725 378.719 206.01 378.719 208.827C378.719 211.645 381.004 213.929 383.821 213.929Z" fill="#9292FD"/>
</g>
<defs>
<clipPath id="clip0_604_3">
<rect width="504" height="260.414" fill="white"/>
</clipPath>
</defs>
</svg>
